# xmcd
#
# Track frame offsets:
#  150
#  18507
#  33145
#  53972
#  75015
#  95022
#  111282
#  127465
#  144967
#  162155
#  180132
#
# Disc length: 2902 seconds
#
# Revision: 3
# Processed by: cddbd v1.5.1PL2 Copyright (c) Steve Scherf et al.
# Submitted via: Collectorz.com_Music_Collector 6.9
#
DISCID=820b540b
DTITLE=Eric Ambel and Roscoe's Gang - Loud and Lonesome
DYEAR=1995
DGENRE=Rock
TTITLE0=Song For The Walls
TTITLE1=Miles From The Machine
TTITLE2=Way Outside
TTITLE3=Three Feet Under
TTITLE4=I'm Not Alone
TTITLE5=One More Moment Gone
TTITLE6=Downtown At Midnight
TTITLE7=The Rain Won't Stop
TTITLE8=Long Gone Dream
TTITLE9=Autumn Rose
TTITLE10=Red Apple Juice
EXTD=
EXTT0=
EXTT1=
EXTT2=
EXTT3=
EXTT4=
EXTT5=
EXTT6=
EXTT7=
EXTT8=
EXTT9=
EXTT10=
PLAYORDER=
